<svg width="32" height="28" viewBox="0 0 32 28" fill="none" xmlns="http://www.w3.org/2000/svg">
<path fill-rule="evenodd" clip-rule="evenodd" d="M30 21C30 22.104 29.104 23 28 23H25.858C25.413 21.278 23.862 20 22 20H10C8.138 20 6.587 21.278 6.142 23H4C2.896 23 2 22.104 2 21V19C2 17.896 2.896 17 4 17H28C29.104 17 30 17.896 30 19V21ZM22 26H10C8.896 26 8 25.104 8 24C8 22.896 8.896 22 10 22H22C23.104 22 24 22.896 24 24C24 25.104 23.104 26 22 26ZM8 4C8 2.896 8.896 2 10 2H22C23.104 2 24 2.896 24 4V15H8V4ZM28 15H26V4C26 1.791 24.209 0 22 0H10C7.791 0 6 1.791 6 4C6 4 6 14.349 6 15H4C1.791 15 0 16.791 0 19V21C0 23.209 1.791 25 4 25H6.142C6.587 26.723 8.138 28 10 28H22C23.862 28 25.413 26.723 25.858 25H28C30.209 25 32 23.209 32 21V19C32 16.791 30.209 15 28 15Z" fill="#3965FF"/>
</svg>
