<svg width="32" height="24" viewBox="0 0 32 24" fill="none" xmlns="http://www.w3.org/2000/svg">
<path fill-rule="evenodd" clip-rule="evenodd" d="M30 20C30 20.203 29.961 20.395 29.905 20.578L21 11L30 4V20ZM3.556 21.946L12.58 12.33L16 14.915L19.272 12.314L28.444 21.946C28.301 21.979 3.699 21.979 3.556 21.946ZM2 20V4L11 11L2.095 20.578C2.039 20.395 2 20.203 2 20ZM29 2L16 12L3 2H29ZM28 0H4C1.791 0 0 1.791 0 4V20C0 22.209 1.791 24 4 24H28C30.209 24 32 22.209 32 20V4C32 1.791 30.209 0 28 0Z" fill="#3965FF"/>
</svg>
