<svg width="25" height="34" viewBox="0 0 25 34" fill="none" xmlns="http://www.w3.org/2000/svg">
<path fill-rule="evenodd" clip-rule="evenodd" d="M12.5 30C13.328 30 14 29.328 14 28.5C14 27.672 13.328 27 12.5 27C11.672 27 11 27.672 11 28.5C11 29.328 11.672 30 12.5 30ZM22 6H3V5C3 3.896 3.896 3 5 3H20C21.104 3 22 3.896 22 5V6ZM3 8H22V24H3V8ZM22 29C22 30.104 21.104 31 20 31H5C3.896 31 3 30.104 3 29V26H22V29ZM20 1H5C2.791 1 1 2.791 1 5V29C1 31.209 2.791 33 5 33H20C22.209 33 24 31.209 24 29V5C24 2.791 22.209 1 20 1Z" fill="#FFFFFE"/>
<path d="M22 6V6.5H22.5V6H22ZM3 6H2.5V6.5H3V6ZM3 8V7.5H2.5V8H3ZM22 8H22.5V7.5H22V8ZM22 24V24.5H22.5V24H22ZM3 24H2.5V24.5H3V24ZM3 26V25.5H2.5V26H3ZM22 26H22.5V25.5H22V26ZM12.5 30.5C13.6041 30.5 14.5 29.6041 14.5 28.5H13.5C13.5 29.0519 13.0519 29.5 12.5 29.5V30.5ZM14.5 28.5C14.5 27.3959 13.6041 26.5 12.5 26.5V27.5C13.0519 27.5 13.5 27.9481 13.5 28.5H14.5ZM12.5 26.5C11.3959 26.5 10.5 27.3959 10.5 28.5H11.5C11.5 27.9481 11.9481 27.5 12.5 27.5V26.5ZM10.5 28.5C10.5 29.6041 11.3959 30.5 12.5 30.5V29.5C11.9481 29.5 11.5 29.0519 11.5 28.5H10.5ZM22 5.5H3V6.5H22V5.5ZM3.5 6V5H2.5V6H3.5ZM3.5 5C3.5 4.17214 4.17214 3.5 5 3.5V2.5C3.61986 2.5 2.5 3.61986 2.5 5H3.5ZM5 3.5H20V2.5H5V3.5ZM20 3.5C20.8279 3.5 21.5 4.17214 21.5 5H22.5C22.5 3.61986 21.3801 2.5 20 2.5V3.5ZM21.5 5V6H22.5V5H21.5ZM3 8.5H22V7.5H3V8.5ZM21.5 8V24H22.5V8H21.5ZM22 23.5H3V24.5H22V23.5ZM3.5 24V8H2.5V24H3.5ZM21.5 29C21.5 29.8279 20.8279 30.5 20 30.5V31.5C21.3801 31.5 22.5 30.3801 22.5 29H21.5ZM20 30.5H5V31.5H20V30.5ZM5 30.5C4.17214 30.5 3.5 29.8279 3.5 29H2.5C2.5 30.3801 3.61986 31.5 5 31.5V30.5ZM3.5 29V26H2.5V29H3.5ZM3 26.5H22V25.5H3V26.5ZM21.5 26V29H22.5V26H21.5ZM20 0.5H5V1.5H20V0.5ZM5 0.5C2.51486 0.5 0.5 2.51486 0.5 5H1.5C1.5 3.06714 3.06714 1.5 5 1.5V0.5ZM0.5 5V29H1.5V5H0.5ZM0.5 29C0.5 31.4851 2.51486 33.5 5 33.5V32.5C3.06714 32.5 1.5 30.9329 1.5 29H0.5ZM5 33.5H20V32.5H5V33.5ZM20 33.5C22.4851 33.5 24.5 31.4851 24.5 29H23.5C23.5 30.9329 21.9329 32.5 20 32.5V33.5ZM24.5 29V5H23.5V29H24.5ZM24.5 5C24.5 2.51486 22.4851 0.5 20 0.5V1.5C21.9329 1.5 23.5 3.06714 23.5 5H24.5Z" fill="#3965FF"/>
</svg>
