<svg width="32" height="32" viewBox="0 0 32 32" fill="none" xmlns="http://www.w3.org/2000/svg">
<path fill-rule="evenodd" clip-rule="evenodd" d="M29.635 8.73701C27.935 11.967 24.16 16.939 21 20.218C17.357 24.158 8.76901 29.546 8.76901 29.546C8.10601 29.894 6.26601 29.92 5.76001 29.415L3.92901 27.589C3.55101 26.957 3.38101 26.225 3.92901 25.763L7.59201 23.023C8.21201 22.604 8.91701 22.519 9.42301 23.023L11.68 25.273C12.211 24.9 20.689 19.344 25.405 11.695L23.094 9.39001C22.588 8.88601 22.674 8.18201 23.094 7.56301L25.841 3.91101C26.347 3.23601 27.167 3.40601 27.672 3.91101L29.504 5.73701C30.222 6.41101 30.014 7.98201 29.635 8.73701ZM31.073 4.43301L28.195 1.56301C27.401 0.770012 26.112 0.770012 25.317 1.56301L21 7.30301C20.341 8.27401 20.206 9.38001 21 10.173L22.762 11.93C21.456 13.68 19.888 15.588 18.123 17.348C16.127 19.338 13.907 21.147 11.911 22.633L10.208 20.936C9.41401 20.143 8.30501 20.277 7.33001 20.936L1.57401 25.241C0.609008 25.906 0.779008 27.318 1.57401 28.111L4.45201 30.98C6.04201 32.566 8.10901 32.058 10.208 30.98C10.208 30.98 16.561 27.424 22 22C27.116 16.898 31.073 10.173 31.073 10.173C31.898 7.91001 32.663 6.01801 31.073 4.43301Z" fill="#3965FF"/>
</svg>
