<svg width="19" height="26" viewBox="0 0 19 26" fill="none" xmlns="http://www.w3.org/2000/svg">
<path d="M4.60869 23.3125V16.0257C4.20596 16.3109 3.8002 16.5418 3.39199 16.7167C1.83877 17.3824 0.124316 16.2335 0.125 14.5625C0.125391 13.6535 0.65708 12.9901 1.54551 12.6094C2.92666 12.0175 4.68657 8.76914 5.32105 7.35869C5.70952 6.48677 6.56514 5.96938 7.46191 5.96885L7.46196 5.96875H15.8373C16.414 5.96875 16.9064 6.38848 16.9946 6.95845C17.3486 9.24541 18.8737 9.97407 18.8655 13C18.8651 13.133 18.875 13.6472 18.875 13.7812C18.875 16.2546 17.7948 17.7644 15.3954 17.3262C14.9414 18.2342 13.4673 18.8271 12.3526 18.1294C11.3186 19.3328 9.721 19.2348 8.88857 18.437V23.3125C8.88857 24.4917 7.9022 25.5 6.74863 25.5C5.61177 25.5 4.60869 24.4575 4.60869 23.3125V23.3125ZM5.59375 4.01562V1.67188C5.59375 1.02466 6.11841 0.5 6.76562 0.5H16.1406C16.7878 0.5 17.3125 1.02466 17.3125 1.67188V4.01562C17.3125 4.66284 16.7878 5.1875 16.1406 5.1875H6.76562C6.11841 5.1875 5.59375 4.66284 5.59375 4.01562ZM15.9453 2.84375C15.9453 2.30439 15.5081 1.86719 14.9687 1.86719C14.4294 1.86719 13.9922 2.30439 13.9922 2.84375C13.9922 3.38311 14.4294 3.82031 14.9687 3.82031C15.5081 3.82031 15.9453 3.38311 15.9453 2.84375Z" fill="#FF0000"/>
</svg>
